<svg width="178" height="167" viewBox="0 0 178 167" fill="none" xmlns="http://www.w3.org/2000/svg">
<path d="M2.98409 59.5603C-4.47088 88.9137 2.05729 114.809 22.4007 136.539C22.9301 137.1 23.4702 137.661 24.0096 138.202C34.9378 149.15 48.5493 155.909 59.3343 160.613C63.9634 162.638 87.7153 165.097 94.1419 164.138C132.333 158.424 157.467 136.845 166.22 100.743C167.891 93.6706 168.724 86.4258 168.699 79.1584C168.741 62.0385 161.545 42.1352 146.707 27.2287C145.179 25.9633 143.656 24.6524 142.184 23.3819C138.992 20.6325 135.692 17.7856 132.24 15.3579C105.867 -3.23733 78.4656 -3.3412 50.7997 6.51953C25.7508 15.438 9.66491 33.2881 2.98409 59.5603ZM50.9071 15.306C75.1811 5.19997 99.5372 3.41655 123.293 18.5525C127.636 21.3228 139.216 30.6988 141.039 32.1071L141.156 32.1936L141.252 32.3012C150.521 42.1468 161.133 60.149 160.899 78.6548C160.821 86.5679 159.752 94.4399 157.716 102.086C151.682 124.058 137.256 140.071 113.612 151.023C89.5768 162.553 55.1077 150.897 45.9366 144.832C35.8 137.889 26.9304 129.251 19.7153 119.297C8.40035 103.249 5.86178 80.18 11.942 59.0914C14.7872 49.3541 19.7599 40.3731 26.4994 32.7998C33.2389 25.2266 41.5763 19.2509 50.9071 15.306V15.306Z" fill="#0000FF"/>
<path d="M137.451 65.8579C134.244 65.173 130.966 64.8667 127.688 64.9458C121.717 65.0821 115.67 65.3285 109.828 65.5676C106.848 65.6867 103.868 65.8025 100.89 65.9155H100.57L100.189 59.8049C99.8311 53.9686 99.4595 47.9312 98.9943 41.9788C98.7651 39.4201 98.0463 36.9292 96.8801 34.6425C95.8096 32.6892 94.1673 31.1131 92.1777 30.1259C90.1858 29.1387 87.9425 28.789 85.746 29.1231C83.5516 29.4574 81.5109 30.4593 79.8996 31.9947C78.2906 33.53 77.1867 35.5242 76.7416 37.7083C76.3054 40.3112 76.0651 42.9431 76.0228 45.5822C75.9516 49.8075 75.9271 54.0336 75.9026 58.2589C75.8892 61.0787 75.867 63.8963 75.8403 66.7132L75.3529 66.7405C72.6534 66.8761 69.9539 67.0046 67.2499 67.1266C61.793 67.3768 56.1491 67.6336 50.5764 68.0201C45.4912 68.3072 40.4282 68.9049 35.4164 69.8083C32.6301 70.2214 30.1063 71.689 28.3638 73.9107C26.6212 76.1321 25.7911 78.9388 26.0448 81.755C26.2073 84.3802 27.2844 86.8649 29.0848 88.7757C30.8853 90.6866 33.2955 91.9032 35.8971 92.2125C39.0662 92.6659 42.2709 92.816 45.4667 92.6598C52.5883 92.4163 59.6921 92.1211 66.8048 91.8262L74.8811 91.4935C74.7453 93.4939 74.6096 95.4939 74.4694 97.4931C73.9553 104.918 73.4234 112.595 73.0896 120.187C72.9672 123.94 73.577 127.681 74.8855 131.199C75.7446 133.534 77.3091 135.541 79.361 136.939C81.4129 138.337 83.8498 139.057 86.329 138.997C86.6807 138.997 87.0345 138.983 87.3928 138.954C89.9432 138.834 92.3935 137.918 94.4009 136.332C96.4083 134.747 97.8705 132.571 98.5871 130.11C99.2636 128.022 99.6509 125.853 99.7421 123.66C99.9869 116.608 100.187 109.549 100.41 102.495C100.521 98.7133 100.632 94.9295 100.748 91.1444H107.364C112.434 91.1444 117.657 91.1447 122.827 91.0419C128.458 91.1397 134.05 90.0918 139.267 87.9609C141.599 87.0821 143.6 85.4905 144.986 83.4112C146.373 81.3318 147.074 78.8693 146.994 76.3688C146.82 73.7923 145.781 71.3503 144.047 69.4419C142.316 67.5332 139.99 66.2701 137.451 65.8579Z" fill="#0000FF"/>
</svg>
