<svg width="154" height="155" viewBox="0 0 154 155" fill="none" xmlns="http://www.w3.org/2000/svg">
<g clip-path="url(#clip0_102_13)">
<path d="M0.992655 75.9408C0.992655 61.4513 1.03158 46.9595 0.967905 32.4729C0.95036 28.355 0.592362 24.2396 0.465653 20.121C0.132961 9.24496 7.58673 1.26255 19.1595 1.03461C43.2816 0.559192 67.4013 -0.477699 91.5377 0.346145C94.092 0.433414 96.6568 0.254306 99.2091 0.366974C100.756 0.428271 102.29 0.680734 103.775 1.11856C104.426 1.30738 104.999 1.70128 105.409 2.24189C105.819 2.7825 106.045 3.44102 106.053 4.12015C106.149 5.59395 105.619 6.90114 104.298 7.45211C102.667 8.12369 100.96 8.58895 99.215 8.83734C97.6639 8.98465 96.1038 8.98765 94.5527 8.84639C74.4307 7.98152 54.2994 8.08311 34.1716 8.44717C28.7367 8.57325 23.3133 9.00549 17.9268 9.74187C14.5557 10.1854 11.4711 11.7094 10.165 15.2698C9.57808 16.7018 9.25994 18.23 9.22667 19.7777C9.38002 25.6742 9.73883 31.5657 10.028 37.4589C10.1261 39.4622 10.3197 41.4635 10.3418 43.4667C10.5458 61.745 10.82 80.0236 10.8701 98.3031C10.9012 109.67 10.523 121.037 10.4593 132.406C10.5355 135.407 10.7741 138.402 11.1742 141.378C11.3821 143.389 12.4971 144.618 14.594 144.829C15.2568 144.894 15.9124 145.122 16.5712 145.123C22.7897 145.127 29.0101 145.2 35.226 145.058C43.1177 144.876 51.0042 144.321 58.8959 144.266C78.1365 144.136 97.3787 144.151 116.62 144.206C122.065 144.222 127.51 144.584 132.956 144.761C134.968 144.895 136.966 144.344 138.627 143.198C140.287 142.051 141.513 140.375 142.105 138.444C142.344 137.714 142.462 136.95 142.456 136.183C142.382 130.285 141.887 124.367 142.225 118.496C143.399 98.1162 143.39 77.7233 143.384 57.3262C143.384 55.209 143.414 53.0891 143.537 50.9764C143.592 49.7519 143.786 48.5377 144.117 47.3574C144.29 46.7024 144.662 46.1178 145.182 45.6851C145.702 45.2523 146.344 44.993 147.019 44.9432C148.584 44.7608 150.025 45.162 150.695 46.6365C151.366 48.0322 151.79 49.5342 151.949 51.0755C152.441 57.8519 152.782 64.64 153.159 71.425C154.339 92.7212 153.134 113.989 152.509 135.263C152.398 137.487 151.985 139.685 151.282 141.797C150.643 144.001 149.496 146.024 147.934 147.704C146.373 149.383 144.44 150.672 142.292 151.468C138.141 153.084 133.721 153.893 129.268 153.853C114.924 153.817 100.579 153.862 86.2348 153.845C80.7857 153.838 75.3346 153.62 69.8887 153.714C56.9946 153.944 44.1035 154.334 31.2104 154.6C25.9861 154.708 20.7527 154.829 15.5342 154.644C7.23968 154.349 1.97767 148.869 1.86851 140.454C1.58845 118.951 1.40322 97.4461 1.17969 75.9421L0.992655 75.9408Z" fill="#0000FF"/>
<path d="M61.08 92.567C61.1917 91.5947 61.3919 90.6341 61.6783 89.6982C63.3321 85.099 64.9925 80.4985 66.8444 75.9775C67.5611 74.3441 68.5235 72.8299 69.6976 71.4883C88.6241 48.9894 107.857 26.7664 128.747 6.04649C129.6 5.16797 130.509 4.34584 131.468 3.58533C134.184 1.51498 137.011 1.44934 139.731 3.53207C141.388 4.84379 142.959 6.26011 144.436 7.77241C147.041 10.3573 149.559 13.0293 152.135 15.6441C154.43 17.9737 153.882 20.907 152.114 22.8478C150.692 24.4108 149.164 25.8761 147.659 27.361C130.148 44.6435 112.465 61.756 95.2214 79.3035C90.3129 84.4107 84.6792 88.7637 78.5029 92.2219C75.4866 93.8806 72.3845 95.3831 69.3026 96.9194C68.5092 97.3239 67.6755 97.6436 66.8165 97.8748C63.0897 98.8367 60.9591 97.1246 61.08 92.567ZM84.9703 79.3146L130.375 32.2134L123.494 21.8865C107.912 38.6968 92.58 55.2375 77.0195 72.0263C79.809 74.5851 82.4725 77.0273 84.9677 79.3146H84.9703ZM129.122 16.6959L137.393 25.0582L143.784 19.3706C141.026 16.1319 138.486 13.1479 135.84 10.0381L129.122 16.6959ZM73.0135 78.6705C72.1772 80.6164 71.5541 82.0668 70.94 83.4969L73.458 86.3143L77.2995 84.0707L73.0135 78.6705Z" fill="#0000FF"/>
</g>
<defs>
<clipPath id="clip0_102_13">
<rect width="154" height="155" fill="white"/>
</clipPath>
</defs>
</svg>
