<svg width="169" height="165" viewBox="0 0 169 165" fill="none" xmlns="http://www.w3.org/2000/svg">
<path d="M2.98409 59.5603C-4.47088 88.9137 2.05729 114.809 22.4007 136.539C22.9301 137.1 23.4702 137.661 24.0096 138.202C34.9378 149.15 48.5493 155.909 59.3343 160.613C63.9634 162.638 87.7153 165.097 94.1419 164.138C132.333 158.424 157.467 136.845 166.22 100.743C167.891 93.6706 168.724 86.4258 168.699 79.1584C168.741 62.0385 161.545 42.1352 146.707 27.2287C145.179 25.9633 143.656 24.6524 142.184 23.3819C138.992 20.6325 135.692 17.7856 132.24 15.3579C105.867 -3.23733 78.4656 -3.3412 50.7997 6.51953C25.7508 15.438 9.66491 33.2881 2.98409 59.5603ZM50.9071 15.306C75.1811 5.19997 99.5372 3.41655 123.293 18.5525C127.636 21.3228 139.216 30.6988 141.039 32.1071L141.156 32.1936L141.252 32.3012C150.521 42.1468 161.133 60.149 160.899 78.6548C160.821 86.5679 159.752 94.4399 157.716 102.086C151.682 124.058 137.256 140.071 113.612 151.023C89.5768 162.553 55.1077 150.897 45.9366 144.832C35.8 137.889 26.9304 129.251 19.7153 119.297C8.40035 103.249 5.86178 80.18 11.942 59.0914C14.7872 49.3541 19.7599 40.3731 26.4994 32.7998C33.2389 25.2266 41.5763 19.2509 50.9071 15.306V15.306Z" fill="#0000FF"/>
</svg>
